<?xml version="1.0" encoding="UTF-8"?>
<svg id="_レイヤー_1" data-name="レイヤー 1" xmlns="http://www.w3.org/2000/svg" viewBox="0 0 192 192">
  <defs>
    <style>
      .cls-1, .cls-2 {
        stroke-linejoin: round;
      }

      .cls-1, .cls-2, .cls-3, .cls-4 {
        stroke: #000;
        stroke-linecap: round;
      }

      .cls-1, .cls-3, .cls-5 {
        fill: #fbb03b;
      }

      .cls-2, .cls-4 {
        fill: none;
      }

      .cls-3, .cls-4 {
        stroke-miterlimit: 10;
      }

      .cls-4 {
        stroke-width: 2px;
      }

      .cls-6, .cls-7, .cls-5, .cls-8 {
        stroke-width: 0px;
      }

      .cls-7 {
        fill: #fff;
      }

      .cls-8 {
        fill: #e6e6e6;
      }
    </style>
  </defs>
  <path class="cls-4" d="m54,85c-25-1-47.34,16.07-29,25,2.37,1.15,5.93,1.47,8,6,7.16,15.62,22-13,67-5,6.37,1.13,8,9,34,6,12.12-1.4,6.34,38.11,16,35,8.88-2.85,2.7-19.96,9-25,5-4,13.89-11.11,8-17-3-3-14-4.17-14-10,0-16-14-14-24-14"/>
  <path class="cls-1" d="m127.5,94.5c3.75,1.32,6.22,3.04,6,4-.22.96-3.15,1.41-7,1"/>
  <path class="cls-5" d="m90.39,99.51c.5.32,1.08.48,1.62.71l-.36-.15c.22.1.44.2.63.35l-.3-.23c.13.1.23.22.33.35l-.23-.3c.2.27.39.55.61.8.07.08.14.15.22.21.33.27.48.34.88.51.33.14.86.02,1.16-.15.31-.18.61-.54.69-.9.09-.38.07-.81-.15-1.16l-.23-.3c-.19-.19-.41-.31-.66-.39l-.04-.02.36.15c-.06-.03-.12-.06-.18-.11l.3.23c-.11-.09-.2-.19-.29-.3l.23.3c-.2-.26-.38-.53-.59-.79s-.49-.47-.77-.64c-.49-.3-1.05-.46-1.58-.68l.36.15c-.17-.07-.33-.15-.49-.25-.32-.2-.79-.25-1.16-.15s-.73.36-.9.69c-.39.74-.17,1.6.54,2.05h0Z"/>
  <path class="cls-3" d="m71.5,87.5c-5.02-.46-8.66,3.76-9,8-.28,3.42,2.83,4.91,2,6-.51.67,0,.67-2,1-3.87.65-7.81,5.81-7,7,.79,1.15,9.04-5.57,13-5,7,1,24.39-1.36,28-3"/>
  <path class="cls-1" d="m93.5,98.5c7.18,7.13,12.14,8.93,14.5,9.5.38.09,2.68.64,3,0,.49-.99-4.4-3.44-4-5,.6-2.32,15.22,1.56,19.56-3.44.24-.28.44-.56.44-.56,1.99-2.91-.08-6.39,0-10,.16-7.4,1.48-9.37,0-13-1.39-3.43-4.07-5.38-5-6-5.43-3.6-12.98-2.65-18,0-5.3,2.79-5.28,6.16-12,9-2.98,1.26-5.36,1.6-6.85,1.71-3.41.25-5.95-.43-7.15-.71-2.71-.64-15.15-3.56-20.26,1.7-3.88,4-3.39,12.59-.74,14.3.47.3,1.69.84,2,2,.2.73.05,1.8-.47,2.02-.22.1-.46,0-.53-.02-1.16-.41-4.42.13-6,1-3.05,1.68-3.58,6.73-3,7,.52.24,1.58-3.47,5-5,2.34-1.05,4.89-.68,7,0"/>
  <g id="_レイヤー_3" data-name="レイヤー 3">
    <path class="cls-7" d="m114.25,92.87c1.57.01,3.08.46,4.43,1.32l-.15-1.18c.09-.07-.13.08-.15.1-.06.04-.13.07-.2.1.12-.05-.1.04-.13.05-.08.03-.17.05-.25.07-.4.1-.54.1-.93.14s-.77.32-.75.75c.02.37.33.79.75.75.99-.09,1.93-.24,2.72-.89.39-.32.22-.94-.15-1.18-1.55-.98-3.36-1.51-5.19-1.52-.39,0-.77.35-.75.75s.33.75.75.75h0Z"/>
    <path class="cls-7" d="m114.2,94.84c.78-.08,1.55.08,2.33.14s1.55.06,2.32,0c.39-.02.77-.33.75-.75-.02-.39-.33-.78-.75-.75-.77.05-1.55.05-2.32,0s-1.55-.23-2.33-.14c-.39.04-.77.31-.75.75.02.37.33.8.75.75h0Z"/>
    <path class="cls-7" d="m117.86,92.8c-1.07.04-2.14-.01-3.19-.2-.56-.1-1.11-.23-1.68-.3-.53-.06-1.21-.12-1.7.13-.61.31-.77,1.17-.14,1.57.45.29,1.16.22,1.67.26s1.12.16,1.59-.12.66-.89.52-1.41c-.16-.6-.68-.96-1.26-1.11-.54-.14-1.21-.24-1.7.11-.33.24-.49.65-.27,1.03.19.32.7.51,1.03.27.16-.12.07-.04.04-.04-.02,0,.14,0,.17.01.05,0,.27.05.38.08.03,0,.21.09.18.07-.06-.05,0-.06,0,.02,0-.08-.02-.08.03-.17,0,0,.16-.2.17-.17,0,0-.16,0-.18,0-.21-.01-.42-.03-.63-.05s-.42-.03-.63-.05c-.08,0-.17-.01-.25-.02-.06,0-.13,0-.19-.01-.11-.01-.08,0,.09.02l.27.27-.04-.06.1.38v-.07c-.03.13-.07.25-.1.38l.04-.06-.27.27c.1-.07,0-.02.13-.04s.28-.02.41-.01c.21,0,.42.03.63.06.52.09,1.02.21,1.54.29,1.07.17,2.15.24,3.23.19.4-.02.75-.33.75-.75,0-.39-.34-.77-.75-.75h0Z"/>
    <path class="cls-7" d="m119.84,92.52c-.17,0-.26-.02-.46-.08-.19-.06-.37-.14-.56-.21-.39-.15-.78-.28-1.18-.39-.84-.22-1.7-.35-2.57-.38-.39-.02-.77.36-.75.75.02.42.33.73.75.75.82.03,1.53.14,2.34.37s1.58.7,2.43.69c.39,0,.77-.34.75-.75s-.33-.75-.75-.75h0Z"/>
    <path class="cls-2" d="m111,63v13"/>
    <path class="cls-2" d="m115,61v9"/>
    <path class="cls-2" d="m121,64c-.72,1.27-1.66,3.33-2,6-.2,1.56-.13,2.93,0,4"/>
    <path class="cls-2" d="m125,65c-.66.87-1.34,1.87-2,3-.84,1.43-1.49,2.78-2,4"/>
    <path class="cls-2" d="m127,68c-.28,1-.83,2.49-2,4-.68.88-1.4,1.53-2,2"/>
  </g>
  <path class="cls-2" d="m114.5,91.5c-.32-.1-1.1-.29-2,0-1.09.36-2.15,1.37-2,2,.14.56,1.31,1.11,6,1"/>
  <path class="cls-2" d="m121.5,92.5c-.19.07-1.52.58-2,2-.31.91-.1,1.71,0,2"/>
  <path class="cls-6" d="m112.75,82.41c-.44.04-.89.11-1.31.23s-.83.3-1.22.5c-.17.09-.32.22-.42.39-.13.14-.22.31-.27.51-.06.2-.07.4-.03.6,0,.2.07.39.18.56.21.32.51.6.9.69l.4.05c.27,0,.52-.07.76-.2.12-.06.25-.12.38-.18l-.36.15c.4-.17.81-.28,1.24-.34l-.4.05c.05,0,.11-.01.16-.02.21,0,.4-.04.58-.13.19-.06.35-.16.48-.31.15-.14.25-.3.31-.48.09-.18.14-.37.13-.58-.02-.39-.14-.79-.44-1.06l-.3-.23c-.23-.14-.49-.2-.76-.2h0Z"/>
  <path class="cls-6" d="m122.14,85.81c.05.05.11.1.16.15.15.12.3.25.46.35.23.15.49.25.74.36.14.06.28.1.43.12.27.05.55.09.83.08.21,0,.4-.04.58-.13.19-.06.35-.16.48-.31.15-.14.25-.3.31-.48.09-.18.14-.37.13-.58l-.05-.4c-.07-.25-.2-.47-.39-.66-.29-.26-.66-.46-1.06-.44-.12,0-.23,0-.35-.01l.4.05c-.18-.02-.36-.07-.53-.14l.36.15c-.17-.07-.33-.16-.47-.27l.3.23c-.08-.06-.15-.13-.22-.2-.14-.15-.3-.25-.48-.31-.18-.09-.37-.14-.58-.13-.21,0-.4.04-.58.13-.19.06-.35.16-.48.31-.26.29-.46.66-.44,1.06l.05.4c.07.25.2.47.39.66h0Z"/>
  <path class="cls-8" d="m26.88,96.5l-.04.1.3-.72c-.1.23-.23.44-.39.64l.47-.61c-.28.34-.6.64-.92.94-.48.46-.91.96-1.28,1.51-.89,1.33-1.03,3.08-.67,4.61s1.42,2.85,2.71,3.8c1.19.87,2.57,1.19,4,1.38.7.09,1.65-.4,2.12-.88.52-.52.91-1.37.88-2.12s-.29-1.58-.88-2.12l-.61-.47c-.47-.27-.97-.41-1.51-.41l-.12-.02.8.11c-.45-.07-.88-.18-1.3-.35l.72.3c-.38-.16-.73-.36-1.06-.6l.61.47c-.26-.2-.49-.42-.69-.68l.47.61c-.19-.26-.35-.52-.48-.82l.3.72c-.1-.26-.17-.52-.22-.8l.11.8c-.04-.28-.04-.54-.01-.82l-.11.8c.03-.23.09-.46.17-.68l-.3.72c.1-.25.24-.47.4-.68l-.47.61c.36-.45.8-.82,1.2-1.22.75-.75,1.22-1.54,1.6-2.51.26-.68.05-1.7-.3-2.31s-1.08-1.22-1.79-1.38c-.77-.17-1.63-.14-2.31.3s-1.08,1.03-1.38,1.79h0Z"/>
  <path class="cls-8" d="m115.11,112.53c2.76,2.82,6.81,3.81,10.65,3.5,2.04-.16,4.01-.61,6.01-.99,1.54-.29,2.69-.39,3.9.47,1.32.94,3.34.23,4.1-1.08.88-1.51.24-3.16-1.08-4.1-3.47-2.49-7.65-1.15-11.45-.5-.75.13-1.45.21-2.26.24-.51.02-1.02,0-1.53-.02-.44-.05-.51-.05-.21,0-.21-.03-.41-.07-.62-.11-.31-.06-.61-.14-.91-.23-.2-.06-.4-.13-.59-.2.23.11.19.09-.14-.07-.37-.19-.73-.39-1.07-.63.31.22-.48-.45-.57-.54-1.13-1.16-3.11-1.14-4.24,0s-1.14,3.08,0,4.24h0Z"/>
  <path class="cls-8" d="m159.21,113.82l.1-.05-.72.3c.1-.04.19-.06.3-.08l-.8.11c.14-.01.27-.01.42,0l-.8-.11c.14.03.27.07.41.12l-.72-.3c.13.06.26.14.38.22l-.61-.47c.15.12.27.24.39.38l-.47-.61c.13.17.23.35.31.55l-.3-.72c.17.41.25.84.32,1.28l-.11-.8c.13,1,.25,2.01.14,3.02l.11-.8c-.05.37-.14.73-.27,1.08l.3-.72c-.13.3-.28.57-.48.83l.47-.61c-.13.15-.26.29-.42.42l.61-.47-.1.07c-.65.49-1.15.97-1.38,1.79-.2.72-.11,1.67.3,2.31s1.03,1.2,1.79,1.38,1.69.17,2.31-.3c.74-.57,1.34-1.09,1.83-1.91.34-.57.61-1.24.75-1.89.28-1.32.22-2.6.07-3.93-.19-1.61-.51-3.29-1.76-4.46-.61-.57-1.36-1.03-2.18-1.24-1.13-.28-2.19-.09-3.23.41-.65.31-1.19,1.12-1.38,1.79-.2.72-.11,1.67.3,2.31s1.03,1.2,1.79,1.38c.82.19,1.55.07,2.31-.3h0Z"/>
  <path class="cls-8" d="m152.82,146.02c0-.09.01-.19.02-.28l-.11.8c.09-.66.3-1.29.5-1.92.23-.73.38-1.46.48-2.22.22-1.66.15-3.3-.25-4.93-.37-1.53-2.18-2.58-3.69-2.1-1.58.51-2.49,2.06-2.1,3.69.09.38.16.75.21,1.14l-.11-.8c.1.87.1,1.73-.01,2.6l.11-.8c-.11.72-.3,1.4-.52,2.09-.29.9-.48,1.78-.55,2.73-.05.74.37,1.61.88,2.12s1.37.91,2.12.88,1.58-.29,2.12-.88.82-1.29.88-2.12h0Z"/>
</svg>